<mxfile host="Electron" modified="2023-10-31T12:19:46.881Z" agent="Mozilla/5.0 (Windows NT 10.0; Win64; x64) AppleWebKit/537.36 (KHTML, like Gecko) draw.io/22.0.0 Chrome/114.0.5735.289 Electron/25.8.3 Safari/537.36" etag="Caha0EabjTtTZHmQkz-E" version="22.0.0" type="device">
  <diagram name="Page-1" id="Y8uXyHcDUaAXDinT7DCb">
    <mxGraphModel dx="5027" dy="4854" grid="1" gridSize="10" guides="1" tooltips="1" connect="1" arrows="1" fold="1" page="1" pageScale="1" pageWidth="827" pageHeight="1169" math="0" shadow="0">
      <root>
        <mxCell id="0" />
        <mxCell id="1" parent="0" />
        <mxCell id="riZJicVT2WOzwHczcI7a-2" style="edgeStyle=orthogonalEdgeStyle;rounded=0;orthogonalLoop=1;jettySize=auto;html=1;entryX=0;entryY=0.5;entryDx=0;entryDy=0;entryPerimeter=0;" parent="1" source="riZJicVT2WOzwHczcI7a-3" target="riZJicVT2WOzwHczcI7a-6" edge="1">
          <mxGeometry relative="1" as="geometry" />
        </mxCell>
        <mxCell id="riZJicVT2WOzwHczcI7a-3" value="CodeCommit Repo&lt;br&gt;" style="sketch=0;points=[[0,0,0],[0.25,0,0],[0.5,0,0],[0.75,0,0],[1,0,0],[0,1,0],[0.25,1,0],[0.5,1,0],[0.75,1,0],[1,1,0],[0,0.25,0],[0,0.5,0],[0,0.75,0],[1,0.25,0],[1,0.5,0],[1,0.75,0]];outlineConnect=0;fontColor=#232F3E;gradientColor=#4D72F3;gradientDirection=north;fillColor=#3334B9;strokeColor=#ffffff;dashed=0;verticalLabelPosition=bottom;verticalAlign=top;align=center;html=1;fontSize=12;fontStyle=0;aspect=fixed;shape=mxgraph.aws4.resourceIcon;resIcon=mxgraph.aws4.codecommit;" parent="1" vertex="1">
          <mxGeometry x="-330" y="-246" width="78" height="78" as="geometry" />
        </mxCell>
        <mxCell id="ZPLuULGBKe7dpCCeT6HW-4" style="edgeStyle=orthogonalEdgeStyle;rounded=0;orthogonalLoop=1;jettySize=auto;html=1;" parent="1" source="riZJicVT2WOzwHczcI7a-6" target="ZPLuULGBKe7dpCCeT6HW-2" edge="1">
          <mxGeometry relative="1" as="geometry" />
        </mxCell>
        <mxCell id="riZJicVT2WOzwHczcI7a-6" value="CodeBuild&lt;br&gt;(Build Docker Image)" style="sketch=0;points=[[0,0,0],[0.25,0,0],[0.5,0,0],[0.75,0,0],[1,0,0],[0,1,0],[0.25,1,0],[0.5,1,0],[0.75,1,0],[1,1,0],[0,0.25,0],[0,0.5,0],[0,0.75,0],[1,0.25,0],[1,0.5,0],[1,0.75,0]];outlineConnect=0;fontColor=#232F3E;gradientColor=#4D72F3;gradientDirection=north;fillColor=#3334B9;strokeColor=#ffffff;dashed=0;verticalLabelPosition=bottom;verticalAlign=top;align=center;html=1;fontSize=12;fontStyle=0;aspect=fixed;shape=mxgraph.aws4.resourceIcon;resIcon=mxgraph.aws4.codebuild;" parent="1" vertex="1">
          <mxGeometry x="-152" y="-246" width="78" height="78" as="geometry" />
        </mxCell>
        <mxCell id="riZJicVT2WOzwHczcI7a-7" value="CodePipeline" style="sketch=0;points=[[0,0,0],[0.25,0,0],[0.5,0,0],[0.75,0,0],[1,0,0],[0,1,0],[0.25,1,0],[0.5,1,0],[0.75,1,0],[1,1,0],[0,0.25,0],[0,0.5,0],[0,0.75,0],[1,0.25,0],[1,0.5,0],[1,0.75,0]];outlineConnect=0;fontColor=#232F3E;gradientColor=#4D72F3;gradientDirection=north;fillColor=#3334B9;strokeColor=#ffffff;dashed=0;verticalLabelPosition=bottom;verticalAlign=top;align=center;html=1;fontSize=12;fontStyle=0;aspect=fixed;shape=mxgraph.aws4.resourceIcon;resIcon=mxgraph.aws4.codepipeline;" parent="1" vertex="1">
          <mxGeometry x="-420" y="-600" width="78" height="78" as="geometry" />
        </mxCell>
        <mxCell id="riZJicVT2WOzwHczcI7a-30" style="edgeStyle=orthogonalEdgeStyle;rounded=0;orthogonalLoop=1;jettySize=auto;html=1;" parent="1" source="riZJicVT2WOzwHczcI7a-10" target="riZJicVT2WOzwHczcI7a-3" edge="1">
          <mxGeometry relative="1" as="geometry" />
        </mxCell>
        <mxCell id="riZJicVT2WOzwHczcI7a-10" value="EventBriddge&lt;br&gt;Trigger on commit" style="sketch=0;points=[[0,0,0],[0.25,0,0],[0.5,0,0],[0.75,0,0],[1,0,0],[0,1,0],[0.25,1,0],[0.5,1,0],[0.75,1,0],[1,1,0],[0,0.25,0],[0,0.5,0],[0,0.75,0],[1,0.25,0],[1,0.5,0],[1,0.75,0]];outlineConnect=0;fontColor=#232F3E;fillColor=#E7157B;strokeColor=#ffffff;dashed=0;verticalLabelPosition=bottom;verticalAlign=top;align=center;html=1;fontSize=12;fontStyle=0;aspect=fixed;shape=mxgraph.aws4.resourceIcon;resIcon=mxgraph.aws4.eventbridge;" parent="1" vertex="1">
          <mxGeometry x="-550" y="-246" width="78" height="78" as="geometry" />
        </mxCell>
        <mxCell id="riZJicVT2WOzwHczcI7a-31" style="edgeStyle=orthogonalEdgeStyle;rounded=0;orthogonalLoop=1;jettySize=auto;html=1;" parent="1" source="riZJicVT2WOzwHczcI7a-11" target="riZJicVT2WOzwHczcI7a-10" edge="1">
          <mxGeometry relative="1" as="geometry" />
        </mxCell>
        <mxCell id="riZJicVT2WOzwHczcI7a-11" value="User" style="sketch=0;outlineConnect=0;fontColor=#232F3E;gradientColor=none;strokeColor=#232F3E;fillColor=#ffffff;dashed=0;verticalLabelPosition=bottom;verticalAlign=top;align=center;html=1;fontSize=12;fontStyle=0;aspect=fixed;shape=mxgraph.aws4.resourceIcon;resIcon=mxgraph.aws4.user;" parent="1" vertex="1">
          <mxGeometry x="-710" y="-237" width="60" height="60" as="geometry" />
        </mxCell>
        <mxCell id="riZJicVT2WOzwHczcI7a-14" value="" style="sketch=0;html=1;dashed=0;whitespace=wrap;fillColor=#2875E2;strokeColor=#ffffff;points=[[0.005,0.63,0],[0.1,0.2,0],[0.9,0.2,0],[0.5,0,0],[0.995,0.63,0],[0.72,0.99,0],[0.5,1,0],[0.28,0.99,0]];verticalLabelPosition=bottom;align=center;verticalAlign=top;shape=mxgraph.kubernetes.icon;prIcon=user" parent="1" vertex="1">
          <mxGeometry x="809" y="-1000" width="90" height="80" as="geometry" />
        </mxCell>
        <mxCell id="riZJicVT2WOzwHczcI7a-15" value="CodeCommit Repo&lt;br&gt;" style="sketch=0;points=[[0,0,0],[0.25,0,0],[0.5,0,0],[0.75,0,0],[1,0,0],[0,1,0],[0.25,1,0],[0.5,1,0],[0.75,1,0],[1,1,0],[0,0.25,0],[0,0.5,0],[0,0.75,0],[1,0.25,0],[1,0.5,0],[1,0.75,0]];outlineConnect=0;fontColor=#232F3E;gradientColor=#4D72F3;gradientDirection=north;fillColor=#3334B9;strokeColor=#ffffff;dashed=0;verticalLabelPosition=bottom;verticalAlign=top;align=center;html=1;fontSize=12;fontStyle=0;aspect=fixed;shape=mxgraph.aws4.resourceIcon;resIcon=mxgraph.aws4.codecommit;" parent="1" vertex="1">
          <mxGeometry x="1014" y="-1000" width="80" height="80" as="geometry" />
        </mxCell>
        <mxCell id="riZJicVT2WOzwHczcI7a-16" value="Bitbucket&amp;nbsp;&lt;br&gt;(git.ypg.com)" style="image;html=1;image=img/lib/atlassian/Bitbucket_Logo.svg;" parent="1" vertex="1">
          <mxGeometry x="1214" y="-1000" width="90" height="80" as="geometry" />
        </mxCell>
        <mxCell id="riZJicVT2WOzwHczcI7a-17" value="" style="endArrow=none;html=1;rounded=0;strokeWidth=5;" parent="1" edge="1">
          <mxGeometry width="50" height="50" relative="1" as="geometry">
            <mxPoint x="854" y="-610" as="sourcePoint" />
            <mxPoint x="854" y="-880" as="targetPoint" />
          </mxGeometry>
        </mxCell>
        <mxCell id="riZJicVT2WOzwHczcI7a-18" value="" style="endArrow=none;html=1;rounded=0;strokeWidth=5;" parent="1" edge="1">
          <mxGeometry width="50" height="50" relative="1" as="geometry">
            <mxPoint x="1053.57" y="-610" as="sourcePoint" />
            <mxPoint x="1053.57" y="-880" as="targetPoint" />
          </mxGeometry>
        </mxCell>
        <mxCell id="riZJicVT2WOzwHczcI7a-19" value="" style="endArrow=none;html=1;rounded=0;strokeWidth=5;" parent="1" edge="1">
          <mxGeometry width="50" height="50" relative="1" as="geometry">
            <mxPoint x="1258.57" y="-610" as="sourcePoint" />
            <mxPoint x="1258.57" y="-880" as="targetPoint" />
          </mxGeometry>
        </mxCell>
        <mxCell id="riZJicVT2WOzwHczcI7a-20" value="" style="endArrow=classic;html=1;rounded=0;strokeColor=#FFB570;strokeWidth=3;" parent="1" edge="1">
          <mxGeometry width="50" height="50" relative="1" as="geometry">
            <mxPoint x="874" y="-840" as="sourcePoint" />
            <mxPoint x="1034" y="-840" as="targetPoint" />
          </mxGeometry>
        </mxCell>
        <mxCell id="riZJicVT2WOzwHczcI7a-21" value="" style="endArrow=classic;html=1;rounded=0;strokeColor=#FFB570;strokeWidth=3;" parent="1" edge="1">
          <mxGeometry width="50" height="50" relative="1" as="geometry">
            <mxPoint x="874" y="-680" as="sourcePoint" />
            <mxPoint x="1034" y="-680" as="targetPoint" />
          </mxGeometry>
        </mxCell>
        <mxCell id="riZJicVT2WOzwHczcI7a-22" value="" style="endArrow=classic;html=1;rounded=0;strokeColor=#FFB570;strokeWidth=3;startArrow=classic;startFill=1;" parent="1" edge="1">
          <mxGeometry width="50" height="50" relative="1" as="geometry">
            <mxPoint x="1244" y="-760" as="sourcePoint" />
            <mxPoint x="874" y="-760" as="targetPoint" />
          </mxGeometry>
        </mxCell>
        <mxCell id="riZJicVT2WOzwHczcI7a-23" value="Deploy Repo through TF" style="text;html=1;align=center;verticalAlign=middle;resizable=0;points=[];autosize=1;strokeColor=none;fillColor=none;" parent="1" vertex="1">
          <mxGeometry x="874" y="-870" width="150" height="30" as="geometry" />
        </mxCell>
        <mxCell id="riZJicVT2WOzwHczcI7a-25" value="Git client: Clone project" style="text;html=1;align=center;verticalAlign=middle;resizable=0;points=[];autosize=1;strokeColor=none;fillColor=none;" parent="1" vertex="1">
          <mxGeometry x="1064" y="-790" width="150" height="30" as="geometry" />
        </mxCell>
        <mxCell id="riZJicVT2WOzwHczcI7a-26" value="Git client: Push project to &lt;br&gt;new repo (with history)" style="text;html=1;align=center;verticalAlign=middle;resizable=0;points=[];autosize=1;strokeColor=none;fillColor=none;" parent="1" vertex="1">
          <mxGeometry x="869" y="-720" width="160" height="40" as="geometry" />
        </mxCell>
        <mxCell id="riZJicVT2WOzwHczcI7a-32" value="CodeArtifact Repository&lt;br&gt;npm-ypcloud" style="sketch=0;points=[[0,0,0],[0.25,0,0],[0.5,0,0],[0.75,0,0],[1,0,0],[0,1,0],[0.25,1,0],[0.5,1,0],[0.75,1,0],[1,1,0],[0,0.25,0],[0,0.5,0],[0,0.75,0],[1,0.25,0],[1,0.5,0],[1,0.75,0]];outlineConnect=0;fontColor=#232F3E;fillColor=#C925D1;strokeColor=#ffffff;dashed=0;verticalLabelPosition=bottom;verticalAlign=top;align=center;html=1;fontSize=12;fontStyle=0;aspect=fixed;shape=mxgraph.aws4.resourceIcon;resIcon=mxgraph.aws4.codeartifact;" parent="1" vertex="1">
          <mxGeometry x="90" y="-1248" width="78" height="78" as="geometry" />
        </mxCell>
        <mxCell id="riZJicVT2WOzwHczcI7a-33" value="CodeArtifact Repository&lt;br&gt;npm-public" style="sketch=0;points=[[0,0,0],[0.25,0,0],[0.5,0,0],[0.75,0,0],[1,0,0],[0,1,0],[0.25,1,0],[0.5,1,0],[0.75,1,0],[1,1,0],[0,0.25,0],[0,0.5,0],[0,0.75,0],[1,0.25,0],[1,0.5,0],[1,0.75,0]];outlineConnect=0;fontColor=#232F3E;fillColor=#C925D1;strokeColor=#ffffff;dashed=0;verticalLabelPosition=bottom;verticalAlign=top;align=center;html=1;fontSize=12;fontStyle=0;aspect=fixed;shape=mxgraph.aws4.resourceIcon;resIcon=mxgraph.aws4.codeartifact;" parent="1" vertex="1">
          <mxGeometry x="-150" y="-1170" width="78" height="78" as="geometry" />
        </mxCell>
        <mxCell id="riZJicVT2WOzwHczcI7a-34" value="CodeArtifact Domain&lt;br&gt;yp-domain" style="sketch=0;points=[[0,0,0],[0.25,0,0],[0.5,0,0],[0.75,0,0],[1,0,0],[0,1,0],[0.25,1,0],[0.5,1,0],[0.75,1,0],[1,1,0],[0,0.25,0],[0,0.5,0],[0,0.75,0],[1,0.25,0],[1,0.5,0],[1,0.75,0]];outlineConnect=0;fontColor=#232F3E;fillColor=#C925D1;strokeColor=#ffffff;dashed=0;verticalLabelPosition=bottom;verticalAlign=top;align=center;html=1;fontSize=12;fontStyle=0;aspect=fixed;shape=mxgraph.aws4.resourceIcon;resIcon=mxgraph.aws4.codeartifact;" parent="1" vertex="1">
          <mxGeometry x="-190" y="-1340" width="78" height="78" as="geometry" />
        </mxCell>
        <mxCell id="riZJicVT2WOzwHczcI7a-37" style="edgeStyle=orthogonalEdgeStyle;rounded=0;orthogonalLoop=1;jettySize=auto;html=1;entryX=0;entryY=0.5;entryDx=0;entryDy=0;entryPerimeter=0;" parent="1" source="riZJicVT2WOzwHczcI7a-33" target="riZJicVT2WOzwHczcI7a-32" edge="1">
          <mxGeometry relative="1" as="geometry" />
        </mxCell>
        <mxCell id="riZJicVT2WOzwHczcI7a-38" value="Search public registery if not found" style="edgeLabel;html=1;align=center;verticalAlign=middle;resizable=0;points=[];" parent="riZJicVT2WOzwHczcI7a-37" vertex="1" connectable="0">
          <mxGeometry x="0.3684" y="1" relative="1" as="geometry">
            <mxPoint x="-24" y="20" as="offset" />
          </mxGeometry>
        </mxCell>
        <mxCell id="riZJicVT2WOzwHczcI7a-39" value="" style="rounded=0;whiteSpace=wrap;html=1;fillColor=none;" parent="1" vertex="1">
          <mxGeometry x="-190" y="-1340" width="440" height="310" as="geometry" />
        </mxCell>
        <mxCell id="ZPLuULGBKe7dpCCeT6HW-5" style="edgeStyle=orthogonalEdgeStyle;rounded=0;orthogonalLoop=1;jettySize=auto;html=1;" parent="1" source="ZPLuULGBKe7dpCCeT6HW-1" target="riZJicVT2WOzwHczcI7a-6" edge="1">
          <mxGeometry relative="1" as="geometry" />
        </mxCell>
        <mxCell id="ZPLuULGBKe7dpCCeT6HW-1" value="ECR" style="sketch=0;points=[[0,0,0],[0.25,0,0],[0.5,0,0],[0.75,0,0],[1,0,0],[0,1,0],[0.25,1,0],[0.5,1,0],[0.75,1,0],[1,1,0],[0,0.25,0],[0,0.5,0],[0,0.75,0],[1,0.25,0],[1,0.5,0],[1,0.75,0]];outlineConnect=0;fontColor=#232F3E;fillColor=#ED7100;strokeColor=#ffffff;dashed=0;verticalLabelPosition=bottom;verticalAlign=top;align=center;html=1;fontSize=12;fontStyle=0;aspect=fixed;shape=mxgraph.aws4.resourceIcon;resIcon=mxgraph.aws4.ecr;" parent="1" vertex="1">
          <mxGeometry x="-152.00000000000003" y="-520" width="78" height="78" as="geometry" />
        </mxCell>
        <mxCell id="ZPLuULGBKe7dpCCeT6HW-2" value="ECR&lt;br&gt;(Store image)" style="sketch=0;points=[[0,0,0],[0.25,0,0],[0.5,0,0],[0.75,0,0],[1,0,0],[0,1,0],[0.25,1,0],[0.5,1,0],[0.75,1,0],[1,1,0],[0,0.25,0],[0,0.5,0],[0,0.75,0],[1,0.25,0],[1,0.5,0],[1,0.75,0]];outlineConnect=0;fontColor=#232F3E;fillColor=#ED7100;strokeColor=#ffffff;dashed=0;verticalLabelPosition=bottom;verticalAlign=top;align=center;html=1;fontSize=12;fontStyle=0;aspect=fixed;shape=mxgraph.aws4.resourceIcon;resIcon=mxgraph.aws4.ecr;" parent="1" vertex="1">
          <mxGeometry x="190" y="-246" width="78" height="78" as="geometry" />
        </mxCell>
        <mxCell id="ZPLuULGBKe7dpCCeT6HW-7" value="Lifecycle&amp;nbsp;&lt;br&gt;Policy" style="sketch=0;html=1;aspect=fixed;strokeColor=none;shadow=0;fillColor=#3B8DF1;verticalAlign=top;labelPosition=center;verticalLabelPosition=bottom;shape=mxgraph.gcp2.lifecycle" parent="1" vertex="1">
          <mxGeometry x="268" y="-320" width="60" height="60" as="geometry" />
        </mxCell>
        <mxCell id="ZPLuULGBKe7dpCCeT6HW-8" value="KMS" style="outlineConnect=0;dashed=0;verticalLabelPosition=bottom;verticalAlign=top;align=center;html=1;shape=mxgraph.aws3.kms;fillColor=#759C3E;gradientColor=none;" parent="1" vertex="1">
          <mxGeometry x="63.5" y="-600" width="76.5" height="93" as="geometry" />
        </mxCell>
        <mxCell id="ZPLuULGBKe7dpCCeT6HW-10" value="CodeBuild&lt;br&gt;buildspec.yml file" style="sketch=0;points=[[0,0,0],[0.25,0,0],[0.5,0,0],[0.75,0,0],[1,0,0],[0,1,0],[0.25,1,0],[0.5,1,0],[0.75,1,0],[1,1,0],[0,0.25,0],[0,0.5,0],[0,0.75,0],[1,0.25,0],[1,0.5,0],[1,0.75,0]];outlineConnect=0;fontColor=#232F3E;gradientColor=#4D72F3;gradientDirection=north;fillColor=#3334B9;strokeColor=#ffffff;dashed=0;verticalLabelPosition=bottom;verticalAlign=top;align=center;html=1;fontSize=12;fontStyle=0;aspect=fixed;shape=mxgraph.aws4.resourceIcon;resIcon=mxgraph.aws4.codebuild;" parent="1" vertex="1">
          <mxGeometry x="400" y="-10" width="130" height="130" as="geometry" />
        </mxCell>
        <mxCell id="ZPLuULGBKe7dpCCeT6HW-21" value="&lt;font style=&quot;font-size: 18px;&quot;&gt;&lt;b&gt;Artifact Bucket&lt;/b&gt;&lt;/font&gt;" style="sketch=0;points=[[0,0,0],[0.25,0,0],[0.5,0,0],[0.75,0,0],[1,0,0],[0,1,0],[0.25,1,0],[0.5,1,0],[0.75,1,0],[1,1,0],[0,0.25,0],[0,0.5,0],[0,0.75,0],[1,0.25,0],[1,0.5,0],[1,0.75,0]];outlineConnect=0;fontColor=#232F3E;fillColor=#7AA116;strokeColor=#ffffff;dashed=0;verticalLabelPosition=bottom;verticalAlign=top;align=center;html=1;fontSize=12;fontStyle=0;aspect=fixed;shape=mxgraph.aws4.resourceIcon;resIcon=mxgraph.aws4.s3;" parent="1" vertex="1">
          <mxGeometry x="1260" y="1140" width="148" height="148" as="geometry" />
        </mxCell>
        <mxCell id="ZPLuULGBKe7dpCCeT6HW-22" value="&lt;p style=&quot;line-height: 140%;&quot;&gt;&lt;font style=&quot;font-size: 14px;&quot;&gt;Login to AWS ECR&lt;/font&gt;&lt;/p&gt;&lt;p style=&quot;line-height: 140%;&quot;&gt;&lt;font style=&quot;font-size: 14px;&quot;&gt;&lt;br&gt;&lt;/font&gt;&lt;/p&gt;&lt;p style=&quot;line-height: 140%;&quot;&gt;&lt;font style=&quot;font-size: 14px;&quot;&gt;&lt;br&gt;&lt;/font&gt;&lt;/p&gt;&lt;p style=&quot;line-height: 140%;&quot;&gt;&lt;font style=&quot;font-size: 14px;&quot;&gt;&lt;br&gt;&lt;/font&gt;&lt;/p&gt;&lt;p style=&quot;line-height: 140%;&quot;&gt;&lt;font style=&quot;font-size: 14px;&quot;&gt;&lt;br&gt;&lt;/font&gt;&lt;/p&gt;" style="rounded=1;whiteSpace=wrap;html=1;fillColor=none;" parent="1" vertex="1">
          <mxGeometry x="470" y="240" width="460" height="150" as="geometry" />
        </mxCell>
        <mxCell id="ZPLuULGBKe7dpCCeT6HW-23" value="&lt;p style=&quot;line-height: 140%;&quot;&gt;&lt;font style=&quot;font-size: 14px;&quot;&gt;Login to AWS CodeArtifact&lt;/font&gt;&lt;/p&gt;&lt;p style=&quot;line-height: 140%;&quot;&gt;&lt;font style=&quot;font-size: 14px;&quot;&gt;&lt;br&gt;&lt;/font&gt;&lt;/p&gt;&lt;p style=&quot;line-height: 140%;&quot;&gt;&lt;font style=&quot;font-size: 14px;&quot;&gt;&lt;br&gt;&lt;/font&gt;&lt;/p&gt;&lt;p style=&quot;line-height: 140%;&quot;&gt;&lt;font style=&quot;font-size: 14px;&quot;&gt;&lt;br&gt;&lt;/font&gt;&lt;/p&gt;&lt;p style=&quot;line-height: 140%;&quot;&gt;&lt;font style=&quot;font-size: 14px;&quot;&gt;&lt;br&gt;&lt;/font&gt;&lt;/p&gt;" style="rounded=1;whiteSpace=wrap;html=1;fillColor=none;" parent="1" vertex="1">
          <mxGeometry x="470" y="420" width="470" height="150" as="geometry" />
        </mxCell>
        <mxCell id="ZPLuULGBKe7dpCCeT6HW-28" value="" style="edgeStyle=orthogonalEdgeStyle;rounded=0;orthogonalLoop=1;jettySize=auto;html=1;" parent="1" source="ZPLuULGBKe7dpCCeT6HW-24" target="ZPLuULGBKe7dpCCeT6HW-25" edge="1">
          <mxGeometry relative="1" as="geometry">
            <Array as="points">
              <mxPoint x="620" y="315" />
              <mxPoint x="620" y="315" />
            </Array>
          </mxGeometry>
        </mxCell>
        <mxCell id="ZPLuULGBKe7dpCCeT6HW-24" value="CodeBuild Runner" style="sketch=0;outlineConnect=0;fontColor=#232F3E;gradientColor=none;strokeColor=#ffffff;fillColor=#232F3E;dashed=0;verticalLabelPosition=middle;verticalAlign=bottom;align=center;html=1;whiteSpace=wrap;fontSize=10;fontStyle=1;spacing=3;shape=mxgraph.aws4.productIcon;prIcon=mxgraph.aws4.codebuild;" parent="1" vertex="1">
          <mxGeometry x="580" y="280" width="62" height="90" as="geometry" />
        </mxCell>
        <mxCell id="ZPLuULGBKe7dpCCeT6HW-25" value="ECR" style="sketch=0;points=[[0,0,0],[0.25,0,0],[0.5,0,0],[0.75,0,0],[1,0,0],[0,1,0],[0.25,1,0],[0.5,1,0],[0.75,1,0],[1,1,0],[0,0.25,0],[0,0.5,0],[0,0.75,0],[1,0.25,0],[1,0.5,0],[1,0.75,0]];outlineConnect=0;fontColor=#232F3E;fillColor=#ED7100;strokeColor=#ffffff;dashed=0;verticalLabelPosition=bottom;verticalAlign=top;align=center;html=1;fontSize=12;fontStyle=0;aspect=fixed;shape=mxgraph.aws4.resourceIcon;resIcon=mxgraph.aws4.ecr;" parent="1" vertex="1">
          <mxGeometry x="768" y="285.5" width="59" height="59" as="geometry" />
        </mxCell>
        <mxCell id="ZPLuULGBKe7dpCCeT6HW-30" value="&lt;p style=&quot;line-height: 140%;&quot;&gt;&lt;span style=&quot;font-size: 14px;&quot;&gt;Define $BUILD_ENV based on $GIT_BRANCH&lt;/span&gt;&lt;/p&gt;" style="rounded=1;whiteSpace=wrap;html=1;fillColor=none;" parent="1" vertex="1">
          <mxGeometry x="470" y="600" width="470" height="60" as="geometry" />
        </mxCell>
        <mxCell id="ZPLuULGBKe7dpCCeT6HW-33" value="" style="edgeStyle=orthogonalEdgeStyle;rounded=0;orthogonalLoop=1;jettySize=auto;html=1;" parent="1" source="ZPLuULGBKe7dpCCeT6HW-31" target="ZPLuULGBKe7dpCCeT6HW-32" edge="1">
          <mxGeometry relative="1" as="geometry">
            <Array as="points">
              <mxPoint x="630" y="500" />
              <mxPoint x="630" y="500" />
            </Array>
          </mxGeometry>
        </mxCell>
        <mxCell id="ZPLuULGBKe7dpCCeT6HW-31" value="CodeBuild Runner" style="sketch=0;outlineConnect=0;fontColor=#232F3E;gradientColor=none;strokeColor=#ffffff;fillColor=#232F3E;dashed=0;verticalLabelPosition=middle;verticalAlign=bottom;align=center;html=1;whiteSpace=wrap;fontSize=10;fontStyle=1;spacing=3;shape=mxgraph.aws4.productIcon;prIcon=mxgraph.aws4.codebuild;" parent="1" vertex="1">
          <mxGeometry x="580" y="470" width="62" height="90" as="geometry" />
        </mxCell>
        <mxCell id="ZPLuULGBKe7dpCCeT6HW-32" value="CodeArtifact" style="sketch=0;points=[[0,0,0],[0.25,0,0],[0.5,0,0],[0.75,0,0],[1,0,0],[0,1,0],[0.25,1,0],[0.5,1,0],[0.75,1,0],[1,1,0],[0,0.25,0],[0,0.5,0],[0,0.75,0],[1,0.25,0],[1,0.5,0],[1,0.75,0]];outlineConnect=0;fontColor=#232F3E;fillColor=#C925D1;strokeColor=#ffffff;dashed=0;verticalLabelPosition=bottom;verticalAlign=top;align=center;html=1;fontSize=12;fontStyle=0;aspect=fixed;shape=mxgraph.aws4.resourceIcon;resIcon=mxgraph.aws4.codeartifact;" parent="1" vertex="1">
          <mxGeometry x="768" y="470" width="59" height="59" as="geometry" />
        </mxCell>
        <mxCell id="ZPLuULGBKe7dpCCeT6HW-36" value="&lt;p style=&quot;line-height: 140%;&quot;&gt;&lt;font style=&quot;font-size: 14px;&quot;&gt;Load Fermium .tar image or download it&amp;nbsp;&lt;/font&gt;&lt;/p&gt;&lt;p style=&quot;line-height: 140%;&quot;&gt;&lt;font style=&quot;font-size: 14px;&quot;&gt;&lt;br&gt;&lt;/font&gt;&lt;/p&gt;&lt;p style=&quot;line-height: 140%;&quot;&gt;&lt;font style=&quot;font-size: 14px;&quot;&gt;&lt;br&gt;&lt;/font&gt;&lt;/p&gt;&lt;p style=&quot;line-height: 140%;&quot;&gt;&lt;font style=&quot;font-size: 14px;&quot;&gt;&lt;br&gt;&lt;/font&gt;&lt;/p&gt;&lt;p style=&quot;line-height: 140%;&quot;&gt;&lt;font style=&quot;font-size: 14px;&quot;&gt;&lt;br&gt;&lt;/font&gt;&lt;/p&gt;&lt;p style=&quot;line-height: 140%;&quot;&gt;&lt;br&gt;&lt;/p&gt;&lt;p style=&quot;line-height: 140%;&quot;&gt;&lt;font style=&quot;font-size: 14px;&quot;&gt;&lt;br&gt;&lt;/font&gt;&lt;/p&gt;&lt;p style=&quot;line-height: 140%;&quot;&gt;&lt;font style=&quot;font-size: 14px;&quot;&gt;&lt;br&gt;&lt;/font&gt;&lt;/p&gt;" style="rounded=1;whiteSpace=wrap;html=1;fillColor=none;" parent="1" vertex="1">
          <mxGeometry x="470" y="700" width="470" height="250" as="geometry" />
        </mxCell>
        <mxCell id="ZPLuULGBKe7dpCCeT6HW-43" style="edgeStyle=orthogonalEdgeStyle;rounded=0;orthogonalLoop=1;jettySize=auto;html=1;" parent="1" source="ZPLuULGBKe7dpCCeT6HW-37" target="ZPLuULGBKe7dpCCeT6HW-39" edge="1">
          <mxGeometry relative="1" as="geometry">
            <Array as="points">
              <mxPoint x="710" y="809" />
              <mxPoint x="710" y="769" />
            </Array>
          </mxGeometry>
        </mxCell>
        <mxCell id="ZPLuULGBKe7dpCCeT6HW-44" value="YES" style="edgeLabel;html=1;align=center;verticalAlign=middle;resizable=0;points=[];" parent="ZPLuULGBKe7dpCCeT6HW-43" vertex="1" connectable="0">
          <mxGeometry x="-0.5656" y="-1" relative="1" as="geometry">
            <mxPoint x="6" as="offset" />
          </mxGeometry>
        </mxCell>
        <mxCell id="ZPLuULGBKe7dpCCeT6HW-45" style="edgeStyle=orthogonalEdgeStyle;rounded=0;orthogonalLoop=1;jettySize=auto;html=1;" parent="1" source="ZPLuULGBKe7dpCCeT6HW-37" target="ZPLuULGBKe7dpCCeT6HW-40" edge="1">
          <mxGeometry relative="1" as="geometry">
            <Array as="points">
              <mxPoint x="710" y="840" />
              <mxPoint x="710" y="880" />
            </Array>
          </mxGeometry>
        </mxCell>
        <mxCell id="ZPLuULGBKe7dpCCeT6HW-46" value="NO" style="edgeLabel;html=1;align=center;verticalAlign=middle;resizable=0;points=[];" parent="ZPLuULGBKe7dpCCeT6HW-45" vertex="1" connectable="0">
          <mxGeometry x="-0.6259" relative="1" as="geometry">
            <mxPoint x="8" as="offset" />
          </mxGeometry>
        </mxCell>
        <mxCell id="ZPLuULGBKe7dpCCeT6HW-37" value="" style="sketch=0;outlineConnect=0;fontColor=#232F3E;gradientColor=none;fillColor=#C925D1;strokeColor=none;dashed=0;verticalLabelPosition=bottom;verticalAlign=top;align=center;html=1;fontSize=12;fontStyle=0;aspect=fixed;pointerEvents=1;shape=mxgraph.aws4.cache_node;" parent="1" vertex="1">
          <mxGeometry x="489" y="729" width="160" height="160" as="geometry" />
        </mxCell>
        <mxCell id="ZPLuULGBKe7dpCCeT6HW-39" value="Docker load fermium.tar" style="image;sketch=0;aspect=fixed;html=1;points=[];align=center;fontSize=12;image=img/lib/mscae/Docker.svg;" parent="1" vertex="1">
          <mxGeometry x="750" y="740" width="70.74" height="58" as="geometry" />
        </mxCell>
        <mxCell id="ZPLuULGBKe7dpCCeT6HW-47" style="edgeStyle=orthogonalEdgeStyle;rounded=0;orthogonalLoop=1;jettySize=auto;html=1;" parent="1" source="ZPLuULGBKe7dpCCeT6HW-40" target="ZPLuULGBKe7dpCCeT6HW-41" edge="1">
          <mxGeometry relative="1" as="geometry" />
        </mxCell>
        <mxCell id="ZPLuULGBKe7dpCCeT6HW-40" value="Docker Pull on ECR" style="sketch=0;points=[[0,0,0],[0.25,0,0],[0.5,0,0],[0.75,0,0],[1,0,0],[0,1,0],[0.25,1,0],[0.5,1,0],[0.75,1,0],[1,1,0],[0,0.25,0],[0,0.5,0],[0,0.75,0],[1,0.25,0],[1,0.5,0],[1,0.75,0]];outlineConnect=0;fontColor=#232F3E;fillColor=#ED7100;strokeColor=#ffffff;dashed=0;verticalLabelPosition=bottom;verticalAlign=top;align=center;html=1;fontSize=12;fontStyle=0;aspect=fixed;shape=mxgraph.aws4.resourceIcon;resIcon=mxgraph.aws4.ecr;" parent="1" vertex="1">
          <mxGeometry x="750" y="850" width="59" height="59" as="geometry" />
        </mxCell>
        <mxCell id="ZPLuULGBKe7dpCCeT6HW-41" value="Docker save &lt;br&gt;fermium.tar" style="image;sketch=0;aspect=fixed;html=1;points=[];align=center;fontSize=12;image=img/lib/mscae/Docker.svg;" parent="1" vertex="1">
          <mxGeometry x="850" y="852.75" width="65.25" height="53.5" as="geometry" />
        </mxCell>
        <mxCell id="ZPLuULGBKe7dpCCeT6HW-42" value="&amp;lt;image_name&amp;gt;.tar &lt;br&gt;in cache ?" style="image;sketch=0;aspect=fixed;html=1;points=[];align=center;fontSize=12;image=img/lib/mscae/Docker.svg;" parent="1" vertex="1">
          <mxGeometry x="533.63" y="780" width="70.74" height="58" as="geometry" />
        </mxCell>
        <mxCell id="ZPLuULGBKe7dpCCeT6HW-51" value="&lt;p style=&quot;line-height: 140%;&quot;&gt;&lt;span style=&quot;font-size: 14px;&quot;&gt;Running NPM install&amp;nbsp;&lt;/span&gt;&lt;/p&gt;&lt;p style=&quot;line-height: 140%;&quot;&gt;&lt;span style=&quot;font-size: 14px;&quot;&gt;&lt;br&gt;&lt;/span&gt;&lt;/p&gt;&lt;p style=&quot;line-height: 140%;&quot;&gt;&lt;span style=&quot;font-size: 14px;&quot;&gt;&lt;br&gt;&lt;/span&gt;&lt;/p&gt;&lt;p style=&quot;line-height: 140%;&quot;&gt;&lt;span style=&quot;font-size: 14px;&quot;&gt;&lt;br&gt;&lt;/span&gt;&lt;/p&gt;&lt;p style=&quot;line-height: 140%;&quot;&gt;&lt;span style=&quot;font-size: 14px;&quot;&gt;&lt;br&gt;&lt;/span&gt;&lt;/p&gt;&lt;p style=&quot;line-height: 140%;&quot;&gt;&lt;span style=&quot;font-size: 14px;&quot;&gt;&lt;br&gt;&lt;/span&gt;&lt;/p&gt;&lt;p style=&quot;line-height: 140%;&quot;&gt;&lt;span style=&quot;font-size: 14px;&quot;&gt;&lt;br&gt;&lt;/span&gt;&lt;/p&gt;&lt;p style=&quot;line-height: 140%;&quot;&gt;&lt;span style=&quot;font-size: 14px;&quot;&gt;&lt;br&gt;&lt;/span&gt;&lt;/p&gt;" style="rounded=1;whiteSpace=wrap;html=1;fillColor=none;" parent="1" vertex="1">
          <mxGeometry x="980" y="240" width="360" height="300" as="geometry" />
        </mxCell>
        <mxCell id="ZPLuULGBKe7dpCCeT6HW-56" style="edgeStyle=orthogonalEdgeStyle;rounded=0;orthogonalLoop=1;jettySize=auto;html=1;" parent="1" source="ZPLuULGBKe7dpCCeT6HW-54" target="ZPLuULGBKe7dpCCeT6HW-55" edge="1">
          <mxGeometry relative="1" as="geometry" />
        </mxCell>
        <mxCell id="ZPLuULGBKe7dpCCeT6HW-57" value="npm install" style="edgeLabel;html=1;align=center;verticalAlign=middle;resizable=0;points=[];" parent="ZPLuULGBKe7dpCCeT6HW-56" vertex="1" connectable="0">
          <mxGeometry x="0.2171" y="3" relative="1" as="geometry">
            <mxPoint x="-7" as="offset" />
          </mxGeometry>
        </mxCell>
        <mxCell id="ZPLuULGBKe7dpCCeT6HW-54" value="docker run fermium&amp;nbsp;" style="image;sketch=0;aspect=fixed;html=1;points=[];align=center;fontSize=12;image=img/lib/mscae/Docker.svg;" parent="1" vertex="1">
          <mxGeometry x="1040" y="320" width="70.74" height="58" as="geometry" />
        </mxCell>
        <mxCell id="ZPLuULGBKe7dpCCeT6HW-59" value="" style="edgeStyle=orthogonalEdgeStyle;rounded=0;orthogonalLoop=1;jettySize=auto;html=1;" parent="1" source="ZPLuULGBKe7dpCCeT6HW-55" target="ZPLuULGBKe7dpCCeT6HW-58" edge="1">
          <mxGeometry relative="1" as="geometry" />
        </mxCell>
        <mxCell id="ZPLuULGBKe7dpCCeT6HW-60" value="Download npm packages" style="edgeLabel;html=1;align=center;verticalAlign=middle;resizable=0;points=[];" parent="ZPLuULGBKe7dpCCeT6HW-59" vertex="1" connectable="0">
          <mxGeometry x="-0.181" y="-1" relative="1" as="geometry">
            <mxPoint as="offset" />
          </mxGeometry>
        </mxCell>
        <mxCell id="ZPLuULGBKe7dpCCeT6HW-55" value="" style="shape=image;verticalLabelPosition=bottom;labelBackgroundColor=default;verticalAlign=top;aspect=fixed;imageAspect=0;image=data:image/png,iVBORw0KGgoAAAANSUhEUgAAAHoAAAB6CAMAAABHh7fWAAAAY1BMVEXjLjf////jKjPnVVr1vL3jLDXkOEDiICv86uviGyfthoniFCHypqf+9/flPEPiGCTmSE7xoKLyqqzzsbPgAADhABb2xcfpbXLnW2Dwm57629z3y8zkNDz98PDsgIThAA/oYmcr1HQ2AAAB/0lEQVRoge3b7XLCIBAF0BVFYiOSqvlAE9v3f8oGiCPRMDYTZVvd+8MZBsKRaKwlLsy6FLqs5k9PVeriLIJ9lJopwaJEKKblhT5kKYdo4Wl2ONNHweLBJkwcHX2ILRv7YGiZRZdbO5MtrdP4MkCqW5pFfIddwtkMCoUhA6gCtMChhYYS4U1mwkqosOgK5lj0nGiiiSaaaKKJJppoookmmmiiiX4Nmqs0EOV2t0SoP3UbQTzYPzSbR/N6twhlaUaLU7D/ZGzOgv297Gp+TS+bWSgbM1htg/3blZlABPt7aZa3dBIaLC29WgdnW4+hk39FqzdYtXQJ0n7/IN0b4Dfu0U39lef5Xnt0/4Sv97kZEKQbZSdwxyTCNra/o+2dAfUZXLW9niBMy9q7IBM7QbpDoRkejbjqabSiE/42q6bXuqWVuReNs2q+aZPHocf9vX7iCR9JP/KEv+SqZdzX2v8e3tGddm/VA9/DpQWU0xpHL1zjlobThxfbzyrXgFu68Ee7m8HMP/5kj2HfrlH7Dbim22ftp+v2GlfXde4N7ma4M0G/MeY/zaHP8CkZQQ99hr8+jXnCdeJl+u86xmxoCOVl+i7I39hLIZpoookmmmiiiSaaaKKJJvrxNOIP8hHLEBCLLxBLThALbTDLixCLqhBLyTAL6DDLBjGLJe0Od/QS0R9KbEWqSeRJHwAAAABJRU5ErkJggg==;" parent="1" vertex="1">
          <mxGeometry x="1210" y="318" width="62" height="62" as="geometry" />
        </mxCell>
        <mxCell id="ZPLuULGBKe7dpCCeT6HW-58" value="CodeArtifact" style="sketch=0;points=[[0,0,0],[0.25,0,0],[0.5,0,0],[0.75,0,0],[1,0,0],[0,1,0],[0.25,1,0],[0.5,1,0],[0.75,1,0],[1,1,0],[0,0.25,0],[0,0.5,0],[0,0.75,0],[1,0.25,0],[1,0.5,0],[1,0.75,0]];outlineConnect=0;fontColor=#232F3E;fillColor=#C925D1;strokeColor=#ffffff;dashed=0;verticalLabelPosition=bottom;verticalAlign=top;align=center;html=1;fontSize=12;fontStyle=0;aspect=fixed;shape=mxgraph.aws4.resourceIcon;resIcon=mxgraph.aws4.codeartifact;" parent="1" vertex="1">
          <mxGeometry x="1211.5" y="440" width="59" height="59" as="geometry" />
        </mxCell>
        <mxCell id="ZPLuULGBKe7dpCCeT6HW-69" value="&lt;p style=&quot;line-height: 140%;&quot;&gt;&lt;span style=&quot;font-size: 14px;&quot;&gt;Running NPM test&amp;nbsp;&lt;/span&gt;&lt;/p&gt;&lt;p style=&quot;line-height: 140%;&quot;&gt;&lt;span style=&quot;font-size: 14px;&quot;&gt;&lt;br&gt;&lt;/span&gt;&lt;/p&gt;&lt;p style=&quot;line-height: 140%;&quot;&gt;&lt;span style=&quot;font-size: 14px;&quot;&gt;&lt;br&gt;&lt;/span&gt;&lt;/p&gt;&lt;p style=&quot;line-height: 140%;&quot;&gt;&lt;span style=&quot;font-size: 14px;&quot;&gt;&lt;br&gt;&lt;/span&gt;&lt;/p&gt;&lt;p style=&quot;line-height: 140%;&quot;&gt;&lt;br&gt;&lt;/p&gt;" style="rounded=1;whiteSpace=wrap;html=1;fillColor=none;" parent="1" vertex="1">
          <mxGeometry x="980" y="570" width="360" height="150" as="geometry" />
        </mxCell>
        <mxCell id="ZPLuULGBKe7dpCCeT6HW-77" style="edgeStyle=orthogonalEdgeStyle;rounded=0;orthogonalLoop=1;jettySize=auto;html=1;" parent="1" source="ZPLuULGBKe7dpCCeT6HW-72" target="ZPLuULGBKe7dpCCeT6HW-75" edge="1">
          <mxGeometry relative="1" as="geometry" />
        </mxCell>
        <mxCell id="ZPLuULGBKe7dpCCeT6HW-78" value="npm test" style="edgeLabel;html=1;align=center;verticalAlign=middle;resizable=0;points=[];" parent="ZPLuULGBKe7dpCCeT6HW-77" vertex="1" connectable="0">
          <mxGeometry x="0.0156" y="5" relative="1" as="geometry">
            <mxPoint as="offset" />
          </mxGeometry>
        </mxCell>
        <mxCell id="ZPLuULGBKe7dpCCeT6HW-72" value="docker run fermium&amp;nbsp;" style="image;sketch=0;aspect=fixed;html=1;points=[];align=center;fontSize=12;image=img/lib/mscae/Docker.svg;" parent="1" vertex="1">
          <mxGeometry x="1050" y="615" width="70.74" height="58" as="geometry" />
        </mxCell>
        <mxCell id="ZPLuULGBKe7dpCCeT6HW-75" value="" style="shape=image;verticalLabelPosition=bottom;labelBackgroundColor=default;verticalAlign=top;aspect=fixed;imageAspect=0;image=data:image/png,iVBORw0KGgoAAAANSUhEUgAAAHoAAAB6CAMAAABHh7fWAAAAY1BMVEXjLjf////jKjPnVVr1vL3jLDXkOEDiICv86uviGyfthoniFCHypqf+9/flPEPiGCTmSE7xoKLyqqzzsbPgAADhABb2xcfpbXLnW2Dwm57629z3y8zkNDz98PDsgIThAA/oYmcr1HQ2AAAB/0lEQVRoge3b7XLCIBAF0BVFYiOSqvlAE9v3f8oGiCPRMDYTZVvd+8MZBsKRaKwlLsy6FLqs5k9PVeriLIJ9lJopwaJEKKblhT5kKYdo4Wl2ONNHweLBJkwcHX2ILRv7YGiZRZdbO5MtrdP4MkCqW5pFfIddwtkMCoUhA6gCtMChhYYS4U1mwkqosOgK5lj0nGiiiSaaaKKJJppoookmmmiiiX4Nmqs0EOV2t0SoP3UbQTzYPzSbR/N6twhlaUaLU7D/ZGzOgv297Gp+TS+bWSgbM1htg/3blZlABPt7aZa3dBIaLC29WgdnW4+hk39FqzdYtXQJ0n7/IN0b4Dfu0U39lef5Xnt0/4Sv97kZEKQbZSdwxyTCNra/o+2dAfUZXLW9niBMy9q7IBM7QbpDoRkejbjqabSiE/42q6bXuqWVuReNs2q+aZPHocf9vX7iCR9JP/KEv+SqZdzX2v8e3tGddm/VA9/DpQWU0xpHL1zjlobThxfbzyrXgFu68Ee7m8HMP/5kj2HfrlH7Dbim22ftp+v2GlfXde4N7ma4M0G/MeY/zaHP8CkZQQ99hr8+jXnCdeJl+u86xmxoCOVl+i7I39hLIZpoookmmmiiiSaaaKKJJvrxNOIP8hHLEBCLLxBLThALbTDLixCLqhBLyTAL6DDLBjGLJe0Od/QS0R9KbEWqSeRJHwAAAABJRU5ErkJggg==;" parent="1" vertex="1">
          <mxGeometry x="1220" y="613" width="62" height="62" as="geometry" />
        </mxCell>
        <mxCell id="ZPLuULGBKe7dpCCeT6HW-79" value="&lt;p style=&quot;line-height: 140%;&quot;&gt;&lt;span style=&quot;font-size: 14px;&quot;&gt;DOCKER BUILD&lt;/span&gt;&lt;/p&gt;&lt;p style=&quot;line-height: 140%;&quot;&gt;&lt;font style=&quot;font-size: 14px;&quot;&gt;&lt;br&gt;&lt;/font&gt;&lt;/p&gt;&lt;p style=&quot;line-height: 140%;&quot;&gt;&lt;font style=&quot;font-size: 14px;&quot;&gt;&lt;br&gt;&lt;/font&gt;&lt;/p&gt;&lt;p style=&quot;line-height: 140%;&quot;&gt;&lt;font style=&quot;font-size: 14px;&quot;&gt;&lt;br&gt;&lt;/font&gt;&lt;/p&gt;&lt;p style=&quot;line-height: 140%;&quot;&gt;&lt;font style=&quot;font-size: 14px;&quot;&gt;&lt;br&gt;&lt;/font&gt;&lt;/p&gt;" style="rounded=1;whiteSpace=wrap;html=1;fillColor=none;" parent="1" vertex="1">
          <mxGeometry x="1390" y="245" width="360" height="150" as="geometry" />
        </mxCell>
        <mxCell id="ZPLuULGBKe7dpCCeT6HW-82" style="edgeStyle=orthogonalEdgeStyle;rounded=0;orthogonalLoop=1;jettySize=auto;html=1;" parent="1" source="ZPLuULGBKe7dpCCeT6HW-80" target="ZPLuULGBKe7dpCCeT6HW-81" edge="1">
          <mxGeometry relative="1" as="geometry" />
        </mxCell>
        <mxCell id="ZPLuULGBKe7dpCCeT6HW-83" value="extract cache&amp;nbsp;" style="edgeLabel;html=1;align=center;verticalAlign=middle;resizable=0;points=[];" parent="ZPLuULGBKe7dpCCeT6HW-82" vertex="1" connectable="0">
          <mxGeometry x="0.0249" y="-2" relative="1" as="geometry">
            <mxPoint x="-1" as="offset" />
          </mxGeometry>
        </mxCell>
        <mxCell id="ZPLuULGBKe7dpCCeT6HW-80" value="docker build&amp;nbsp;" style="image;sketch=0;aspect=fixed;html=1;points=[];align=center;fontSize=12;image=img/lib/mscae/Docker.svg;" parent="1" vertex="1">
          <mxGeometry x="1440" y="285.5" width="70.74" height="58" as="geometry" />
        </mxCell>
        <mxCell id="ZPLuULGBKe7dpCCeT6HW-81" value="ECR" style="sketch=0;points=[[0,0,0],[0.25,0,0],[0.5,0,0],[0.75,0,0],[1,0,0],[0,1,0],[0.25,1,0],[0.5,1,0],[0.75,1,0],[1,1,0],[0,0.25,0],[0,0.5,0],[0,0.75,0],[1,0.25,0],[1,0.5,0],[1,0.75,0]];outlineConnect=0;fontColor=#232F3E;fillColor=#ED7100;strokeColor=#ffffff;dashed=0;verticalLabelPosition=bottom;verticalAlign=top;align=center;html=1;fontSize=12;fontStyle=0;aspect=fixed;shape=mxgraph.aws4.resourceIcon;resIcon=mxgraph.aws4.ecr;" parent="1" vertex="1">
          <mxGeometry x="1640" y="285.5" width="59" height="59" as="geometry" />
        </mxCell>
        <mxCell id="ZPLuULGBKe7dpCCeT6HW-85" value="&lt;p style=&quot;line-height: 140%;&quot;&gt;&lt;span style=&quot;font-size: 14px;&quot;&gt;DOCKER TAG&lt;/span&gt;&lt;/p&gt;&lt;p style=&quot;line-height: 140%;&quot;&gt;&lt;font style=&quot;font-size: 14px;&quot;&gt;&lt;br&gt;&lt;/font&gt;&lt;/p&gt;&lt;p style=&quot;line-height: 140%;&quot;&gt;&lt;font style=&quot;font-size: 14px;&quot;&gt;&lt;br&gt;&lt;/font&gt;&lt;/p&gt;&lt;p style=&quot;line-height: 140%;&quot;&gt;&lt;font style=&quot;font-size: 14px;&quot;&gt;&lt;br&gt;&lt;/font&gt;&lt;/p&gt;&lt;p style=&quot;line-height: 140%;&quot;&gt;&lt;font style=&quot;font-size: 14px;&quot;&gt;&lt;br&gt;&lt;/font&gt;&lt;/p&gt;" style="rounded=1;whiteSpace=wrap;html=1;fillColor=none;" parent="1" vertex="1">
          <mxGeometry x="1790" y="245" width="360" height="150" as="geometry" />
        </mxCell>
        <mxCell id="ZPLuULGBKe7dpCCeT6HW-89" value="docker tag" style="image;sketch=0;aspect=fixed;html=1;points=[];align=center;fontSize=12;image=img/lib/mscae/Docker.svg;" parent="1" vertex="1">
          <mxGeometry x="1934.63" y="290" width="70.74" height="58" as="geometry" />
        </mxCell>
        <mxCell id="ZPLuULGBKe7dpCCeT6HW-91" value="&lt;p style=&quot;line-height: 140%;&quot;&gt;&lt;span style=&quot;font-size: 14px;&quot;&gt;DOCKER PUSH&lt;/span&gt;&lt;/p&gt;&lt;p style=&quot;line-height: 140%;&quot;&gt;&lt;font style=&quot;font-size: 14px;&quot;&gt;&lt;br&gt;&lt;/font&gt;&lt;/p&gt;&lt;p style=&quot;line-height: 140%;&quot;&gt;&lt;font style=&quot;font-size: 14px;&quot;&gt;&lt;br&gt;&lt;/font&gt;&lt;/p&gt;&lt;p style=&quot;line-height: 140%;&quot;&gt;&lt;font style=&quot;font-size: 14px;&quot;&gt;&lt;br&gt;&lt;/font&gt;&lt;/p&gt;&lt;p style=&quot;line-height: 140%;&quot;&gt;&lt;font style=&quot;font-size: 14px;&quot;&gt;&lt;br&gt;&lt;/font&gt;&lt;/p&gt;" style="rounded=1;whiteSpace=wrap;html=1;fillColor=none;" parent="1" vertex="1">
          <mxGeometry x="1790" y="424.5" width="360" height="150" as="geometry" />
        </mxCell>
        <mxCell id="ZPLuULGBKe7dpCCeT6HW-92" style="edgeStyle=orthogonalEdgeStyle;rounded=0;orthogonalLoop=1;jettySize=auto;html=1;" parent="1" source="ZPLuULGBKe7dpCCeT6HW-94" target="ZPLuULGBKe7dpCCeT6HW-95" edge="1">
          <mxGeometry relative="1" as="geometry" />
        </mxCell>
        <mxCell id="ZPLuULGBKe7dpCCeT6HW-93" value="upload to&amp;nbsp;" style="edgeLabel;html=1;align=center;verticalAlign=middle;resizable=0;points=[];" parent="ZPLuULGBKe7dpCCeT6HW-92" vertex="1" connectable="0">
          <mxGeometry x="0.0249" y="-2" relative="1" as="geometry">
            <mxPoint x="-1" as="offset" />
          </mxGeometry>
        </mxCell>
        <mxCell id="ZPLuULGBKe7dpCCeT6HW-94" value="docker push" style="image;sketch=0;aspect=fixed;html=1;points=[];align=center;fontSize=12;image=img/lib/mscae/Docker.svg;" parent="1" vertex="1">
          <mxGeometry x="1840" y="465" width="70.74" height="58" as="geometry" />
        </mxCell>
        <mxCell id="ZPLuULGBKe7dpCCeT6HW-96" value="" style="rounded=0;whiteSpace=wrap;html=1;fillColor=none;" parent="1" vertex="1">
          <mxGeometry x="460" y="180" width="490" height="800" as="geometry" />
        </mxCell>
        <mxCell id="ZPLuULGBKe7dpCCeT6HW-95" value="ECR" style="sketch=0;points=[[0,0,0],[0.25,0,0],[0.5,0,0],[0.75,0,0],[1,0,0],[0,1,0],[0.25,1,0],[0.5,1,0],[0.75,1,0],[1,1,0],[0,0.25,0],[0,0.5,0],[0,0.75,0],[1,0.25,0],[1,0.5,0],[1,0.75,0]];outlineConnect=0;fontColor=#232F3E;fillColor=#ED7100;strokeColor=#ffffff;dashed=0;verticalLabelPosition=bottom;verticalAlign=top;align=center;html=1;fontSize=12;fontStyle=0;aspect=fixed;shape=mxgraph.aws4.resourceIcon;resIcon=mxgraph.aws4.ecr;" parent="1" vertex="1">
          <mxGeometry x="2040" y="465" width="59" height="59" as="geometry" />
        </mxCell>
        <mxCell id="ZPLuULGBKe7dpCCeT6HW-97" value="&lt;font style=&quot;font-size: 20px;&quot;&gt;INSTALL PHASE&lt;/font&gt;" style="text;html=1;strokeColor=none;fillColor=none;align=center;verticalAlign=middle;whiteSpace=wrap;rounded=0;" parent="1" vertex="1">
          <mxGeometry x="604.37" y="180" width="190" height="30" as="geometry" />
        </mxCell>
        <mxCell id="ZPLuULGBKe7dpCCeT6HW-98" value="" style="rounded=0;whiteSpace=wrap;html=1;fillColor=none;" parent="1" vertex="1">
          <mxGeometry x="960" y="180" width="400" height="800" as="geometry" />
        </mxCell>
        <mxCell id="ZPLuULGBKe7dpCCeT6HW-99" value="" style="rounded=0;whiteSpace=wrap;html=1;fillColor=none;" parent="1" vertex="1">
          <mxGeometry x="1370" y="180" width="400" height="800" as="geometry" />
        </mxCell>
        <mxCell id="ZPLuULGBKe7dpCCeT6HW-100" value="" style="rounded=0;whiteSpace=wrap;html=1;fillColor=none;" parent="1" vertex="1">
          <mxGeometry x="1780" y="180" width="400" height="800" as="geometry" />
        </mxCell>
        <mxCell id="ZPLuULGBKe7dpCCeT6HW-101" value="&lt;font style=&quot;font-size: 20px;&quot;&gt;PRE_BUILD PHASE&lt;/font&gt;" style="text;html=1;strokeColor=none;fillColor=none;align=center;verticalAlign=middle;whiteSpace=wrap;rounded=0;" parent="1" vertex="1">
          <mxGeometry x="1050" y="190" width="190" height="30" as="geometry" />
        </mxCell>
        <mxCell id="ZPLuULGBKe7dpCCeT6HW-102" value="&lt;font style=&quot;font-size: 20px;&quot;&gt;BUILD PHASE&lt;/font&gt;" style="text;html=1;strokeColor=none;fillColor=none;align=center;verticalAlign=middle;whiteSpace=wrap;rounded=0;" parent="1" vertex="1">
          <mxGeometry x="1475" y="190" width="190" height="30" as="geometry" />
        </mxCell>
        <mxCell id="ZPLuULGBKe7dpCCeT6HW-103" value="&lt;font style=&quot;font-size: 20px;&quot;&gt;POST_BUILD PHASE&lt;/font&gt;" style="text;html=1;strokeColor=none;fillColor=none;align=center;verticalAlign=middle;whiteSpace=wrap;rounded=0;" parent="1" vertex="1">
          <mxGeometry x="1852.5" y="190" width="235" height="30" as="geometry" />
        </mxCell>
        <mxCell id="ZPLuULGBKe7dpCCeT6HW-106" value="&lt;span style=&quot;font-size: 24px;&quot;&gt;&lt;b&gt;PIPELINE DEFINED IN BUILDSPEC.yml file&lt;/b&gt;&lt;/span&gt;" style="text;html=1;strokeColor=none;fillColor=none;align=center;verticalAlign=middle;whiteSpace=wrap;rounded=0;" parent="1" vertex="1">
          <mxGeometry x="950" y="24" width="658" height="30" as="geometry" />
        </mxCell>
        <mxCell id="ZPLuULGBKe7dpCCeT6HW-111" style="edgeStyle=orthogonalEdgeStyle;rounded=0;orthogonalLoop=1;jettySize=auto;html=1;entryX=1;entryY=0.5;entryDx=0;entryDy=0;entryPerimeter=0;dashed=1;" parent="1" target="ZPLuULGBKe7dpCCeT6HW-21" edge="1">
          <mxGeometry relative="1" as="geometry">
            <Array as="points">
              <mxPoint x="2400" y="510" />
              <mxPoint x="2400" y="1214" />
            </Array>
            <mxPoint x="2220" y="510" as="sourcePoint" />
          </mxGeometry>
        </mxCell>
        <mxCell id="ZPLuULGBKe7dpCCeT6HW-112" value="Store cache" style="edgeLabel;html=1;align=center;verticalAlign=middle;resizable=0;points=[];" parent="ZPLuULGBKe7dpCCeT6HW-111" vertex="1" connectable="0">
          <mxGeometry x="-0.4421" relative="1" as="geometry">
            <mxPoint as="offset" />
          </mxGeometry>
        </mxCell>
        <mxCell id="ZPLuULGBKe7dpCCeT6HW-114" style="edgeStyle=orthogonalEdgeStyle;rounded=0;orthogonalLoop=1;jettySize=auto;html=1;entryX=0;entryY=0.435;entryDx=0;entryDy=0;entryPerimeter=0;dashed=1;" parent="1" source="ZPLuULGBKe7dpCCeT6HW-21" edge="1">
          <mxGeometry relative="1" as="geometry">
            <Array as="points">
              <mxPoint x="170" y="1220" />
              <mxPoint x="170" y="443" />
            </Array>
            <mxPoint x="400" y="442.39999999999964" as="targetPoint" />
          </mxGeometry>
        </mxCell>
        <mxCell id="ZPLuULGBKe7dpCCeT6HW-116" value="Extract Cache" style="edgeLabel;html=1;align=center;verticalAlign=middle;resizable=0;points=[];" parent="ZPLuULGBKe7dpCCeT6HW-114" vertex="1" connectable="0">
          <mxGeometry x="0.542" y="3" relative="1" as="geometry">
            <mxPoint as="offset" />
          </mxGeometry>
        </mxCell>
        <mxCell id="xWFv-LNBJBYuZ6HYcTC7-1" style="edgeStyle=orthogonalEdgeStyle;rounded=0;orthogonalLoop=1;jettySize=auto;html=1;" edge="1" parent="1" source="ZPLuULGBKe7dpCCeT6HW-117" target="riZJicVT2WOzwHczcI7a-6">
          <mxGeometry relative="1" as="geometry">
            <Array as="points">
              <mxPoint x="-239" y="-360" />
              <mxPoint x="-113" y="-360" />
            </Array>
          </mxGeometry>
        </mxCell>
        <mxCell id="ZPLuULGBKe7dpCCeT6HW-117" value="CodeArtifact" style="sketch=0;points=[[0,0,0],[0.25,0,0],[0.5,0,0],[0.75,0,0],[1,0,0],[0,1,0],[0.25,1,0],[0.5,1,0],[0.75,1,0],[1,1,0],[0,0.25,0],[0,0.5,0],[0,0.75,0],[1,0.25,0],[1,0.5,0],[1,0.75,0]];outlineConnect=0;fontColor=#232F3E;fillColor=#C925D1;strokeColor=#ffffff;dashed=0;verticalLabelPosition=bottom;verticalAlign=top;align=center;html=1;fontSize=12;fontStyle=0;aspect=fixed;shape=mxgraph.aws4.resourceIcon;resIcon=mxgraph.aws4.codeartifact;" parent="1" vertex="1">
          <mxGeometry x="-268" y="-520" width="78" height="78" as="geometry" />
        </mxCell>
        <mxCell id="ZPLuULGBKe7dpCCeT6HW-118" value="&lt;span style=&quot;font-size: 24px;&quot;&gt;&lt;b&gt;CodeArtifact Focus&lt;/b&gt;&lt;/span&gt;" style="text;html=1;strokeColor=none;fillColor=none;align=center;verticalAlign=middle;whiteSpace=wrap;rounded=0;" parent="1" vertex="1">
          <mxGeometry x="-299" y="-1320" width="658" height="30" as="geometry" />
        </mxCell>
        <mxCell id="ZPLuULGBKe7dpCCeT6HW-120" value="Dev Team" style="sketch=0;html=1;dashed=0;whitespace=wrap;fillColor=#2875E2;strokeColor=#ffffff;points=[[0.005,0.63,0],[0.1,0.2,0],[0.9,0.2,0],[0.5,0,0],[0.995,0.63,0],[0.72,0.99,0],[0.5,1,0],[0.28,0.99,0]];verticalLabelPosition=bottom;align=center;verticalAlign=top;shape=mxgraph.kubernetes.icon;prIcon=user" parent="1" vertex="1">
          <mxGeometry x="790" y="-1732" width="90" height="80" as="geometry" />
        </mxCell>
        <mxCell id="ZPLuULGBKe7dpCCeT6HW-121" value="CodeCommit Repo&lt;br&gt;" style="sketch=0;points=[[0,0,0],[0.25,0,0],[0.5,0,0],[0.75,0,0],[1,0,0],[0,1,0],[0.25,1,0],[0.5,1,0],[0.75,1,0],[1,1,0],[0,0.25,0],[0,0.5,0],[0,0.75,0],[1,0.25,0],[1,0.5,0],[1,0.75,0]];outlineConnect=0;fontColor=#232F3E;gradientColor=#4D72F3;gradientDirection=north;fillColor=#3334B9;strokeColor=#ffffff;dashed=0;verticalLabelPosition=bottom;verticalAlign=top;align=center;html=1;fontSize=12;fontStyle=0;aspect=fixed;shape=mxgraph.aws4.resourceIcon;resIcon=mxgraph.aws4.codecommit;" parent="1" vertex="1">
          <mxGeometry x="1500" y="-1732" width="80" height="80" as="geometry" />
        </mxCell>
        <mxCell id="ZPLuULGBKe7dpCCeT6HW-122" value="Bitbucket&amp;nbsp;&lt;br&gt;(git.ypg.com)" style="image;html=1;image=img/lib/atlassian/Bitbucket_Logo.svg;" parent="1" vertex="1">
          <mxGeometry x="994.5" y="-1732" width="90" height="80" as="geometry" />
        </mxCell>
        <mxCell id="ZPLuULGBKe7dpCCeT6HW-123" value="" style="endArrow=none;html=1;rounded=0;strokeWidth=5;" parent="1" edge="1">
          <mxGeometry width="50" height="50" relative="1" as="geometry">
            <mxPoint x="835" y="-1342" as="sourcePoint" />
            <mxPoint x="835" y="-1612" as="targetPoint" />
          </mxGeometry>
        </mxCell>
        <mxCell id="ZPLuULGBKe7dpCCeT6HW-124" value="" style="endArrow=none;html=1;rounded=0;strokeWidth=5;" parent="1" edge="1">
          <mxGeometry width="50" height="50" relative="1" as="geometry">
            <mxPoint x="1034.57" y="-1342" as="sourcePoint" />
            <mxPoint x="1034.57" y="-1612" as="targetPoint" />
          </mxGeometry>
        </mxCell>
        <mxCell id="ZPLuULGBKe7dpCCeT6HW-125" value="" style="endArrow=none;html=1;rounded=0;strokeWidth=5;" parent="1" edge="1">
          <mxGeometry width="50" height="50" relative="1" as="geometry">
            <mxPoint x="1239.57" y="-1342" as="sourcePoint" />
            <mxPoint x="1239.57" y="-1612" as="targetPoint" />
          </mxGeometry>
        </mxCell>
        <mxCell id="ZPLuULGBKe7dpCCeT6HW-126" value="" style="endArrow=classic;html=1;rounded=0;strokeColor=#FFB570;strokeWidth=3;" parent="1" edge="1">
          <mxGeometry width="50" height="50" relative="1" as="geometry">
            <mxPoint x="855" y="-1572" as="sourcePoint" />
            <mxPoint x="1015" y="-1572" as="targetPoint" />
          </mxGeometry>
        </mxCell>
        <mxCell id="ZPLuULGBKe7dpCCeT6HW-127" value="" style="endArrow=classic;html=1;rounded=0;strokeColor=#FFB570;strokeWidth=3;" parent="1" edge="1">
          <mxGeometry width="50" height="50" relative="1" as="geometry">
            <mxPoint x="1050" y="-1389" as="sourcePoint" />
            <mxPoint x="1537.75" y="-1389.05" as="targetPoint" />
          </mxGeometry>
        </mxCell>
        <mxCell id="ZPLuULGBKe7dpCCeT6HW-128" value="" style="endArrow=none;html=1;rounded=0;strokeColor=#FFB570;strokeWidth=3;startArrow=classic;startFill=1;endFill=0;" parent="1" edge="1">
          <mxGeometry width="50" height="50" relative="1" as="geometry">
            <mxPoint x="1225" y="-1492" as="sourcePoint" />
            <mxPoint x="855" y="-1492" as="targetPoint" />
          </mxGeometry>
        </mxCell>
        <mxCell id="ZPLuULGBKe7dpCCeT6HW-129" value="Dev commits all their change" style="text;html=1;align=center;verticalAlign=middle;resizable=0;points=[];autosize=1;strokeColor=none;fillColor=none;" parent="1" vertex="1">
          <mxGeometry x="840" y="-1602" width="180" height="30" as="geometry" />
        </mxCell>
        <mxCell id="ZPLuULGBKe7dpCCeT6HW-130" value="Deploy terraform infrastructure" style="text;html=1;align=center;verticalAlign=middle;resizable=0;points=[];autosize=1;strokeColor=none;fillColor=none;" parent="1" vertex="1">
          <mxGeometry x="1025" y="-1522" width="190" height="30" as="geometry" />
        </mxCell>
        <mxCell id="ZPLuULGBKe7dpCCeT6HW-131" value="Migrate from BB to CC" style="text;html=1;align=center;verticalAlign=middle;resizable=0;points=[];autosize=1;strokeColor=none;fillColor=none;" parent="1" vertex="1">
          <mxGeometry x="1070.5" y="-1433.05" width="140" height="30" as="geometry" />
        </mxCell>
        <mxCell id="ZPLuULGBKe7dpCCeT6HW-132" value="" style="endArrow=none;html=1;rounded=0;strokeWidth=5;" parent="1" edge="1">
          <mxGeometry width="50" height="50" relative="1" as="geometry">
            <mxPoint x="1540" y="-1340" as="sourcePoint" />
            <mxPoint x="1540" y="-1610" as="targetPoint" />
          </mxGeometry>
        </mxCell>
        <mxCell id="ZPLuULGBKe7dpCCeT6HW-134" value="Terraform" style="shape=image;verticalLabelPosition=bottom;labelBackgroundColor=default;verticalAlign=top;aspect=fixed;imageAspect=0;image=https://static-00.iconduck.com/assets.00/terraform-icon-1803x2048-hodrzd3t.png;" parent="1" vertex="1">
          <mxGeometry x="1195.3" y="-1732" width="79.2" height="90" as="geometry" />
        </mxCell>
        <mxCell id="ZPLuULGBKe7dpCCeT6HW-136" value="" style="endArrow=none;html=1;rounded=0;strokeColor=#FFB570;strokeWidth=3;endFill=0;startArrow=classic;startFill=1;" parent="1" edge="1">
          <mxGeometry width="50" height="50" relative="1" as="geometry">
            <mxPoint x="838" y="-1347.05" as="sourcePoint" />
            <mxPoint x="1523.5" y="-1347.05" as="targetPoint" />
          </mxGeometry>
        </mxCell>
        <mxCell id="ZPLuULGBKe7dpCCeT6HW-137" value="Git clone on CC Repo" style="edgeLabel;html=1;align=center;verticalAlign=middle;resizable=0;points=[];" parent="ZPLuULGBKe7dpCCeT6HW-136" vertex="1" connectable="0">
          <mxGeometry x="-0.5709" y="-4" relative="1" as="geometry">
            <mxPoint x="-27" y="-23" as="offset" />
          </mxGeometry>
        </mxCell>
        <mxCell id="ZPLuULGBKe7dpCCeT6HW-139" value="" style="endArrow=none;html=1;rounded=0;strokeWidth=5;" parent="1" edge="1">
          <mxGeometry width="50" height="50" relative="1" as="geometry">
            <mxPoint x="1400" y="-1340" as="sourcePoint" />
            <mxPoint x="1400" y="-1610" as="targetPoint" />
          </mxGeometry>
        </mxCell>
        <mxCell id="ZPLuULGBKe7dpCCeT6HW-140" value="CodeArtifact" style="sketch=0;points=[[0,0,0],[0.25,0,0],[0.5,0,0],[0.75,0,0],[1,0,0],[0,1,0],[0.25,1,0],[0.5,1,0],[0.75,1,0],[1,1,0],[0,0.25,0],[0,0.5,0],[0,0.75,0],[1,0.25,0],[1,0.5,0],[1,0.75,0]];outlineConnect=0;fontColor=#232F3E;fillColor=#C925D1;strokeColor=#ffffff;dashed=0;verticalLabelPosition=bottom;verticalAlign=top;align=center;html=1;fontSize=12;fontStyle=0;aspect=fixed;shape=mxgraph.aws4.resourceIcon;resIcon=mxgraph.aws4.codeartifact;" parent="1" vertex="1">
          <mxGeometry x="1380" y="-1780" width="46" height="46" as="geometry" />
        </mxCell>
        <mxCell id="ZPLuULGBKe7dpCCeT6HW-141" value="ECR" style="sketch=0;points=[[0,0,0],[0.25,0,0],[0.5,0,0],[0.75,0,0],[1,0,0],[0,1,0],[0.25,1,0],[0.5,1,0],[0.75,1,0],[1,1,0],[0,0.25,0],[0,0.5,0],[0,0.75,0],[1,0.25,0],[1,0.5,0],[1,0.75,0]];outlineConnect=0;fontColor=#232F3E;fillColor=#ED7100;strokeColor=#ffffff;dashed=0;verticalLabelPosition=bottom;verticalAlign=top;align=center;html=1;fontSize=12;fontStyle=0;aspect=fixed;shape=mxgraph.aws4.resourceIcon;resIcon=mxgraph.aws4.ecr;" parent="1" vertex="1">
          <mxGeometry x="1380" y="-1700" width="48" height="48" as="geometry" />
        </mxCell>
        <mxCell id="ZPLuULGBKe7dpCCeT6HW-142" value="" style="endArrow=none;html=1;rounded=0;strokeColor=#FFB570;strokeWidth=3;startArrow=classic;startFill=1;endFill=0;" parent="1" edge="1">
          <mxGeometry width="50" height="50" relative="1" as="geometry">
            <mxPoint x="1400" y="-1440" as="sourcePoint" />
            <mxPoint x="854.5" y="-1440" as="targetPoint" />
          </mxGeometry>
        </mxCell>
        <mxCell id="ZPLuULGBKe7dpCCeT6HW-143" value="Deploy artifacts &lt;br&gt;(npm packages, docker iamges)" style="edgeLabel;html=1;align=center;verticalAlign=middle;resizable=0;points=[];" parent="ZPLuULGBKe7dpCCeT6HW-142" vertex="1" connectable="0">
          <mxGeometry x="0.0567" relative="1" as="geometry">
            <mxPoint x="-172" y="-20" as="offset" />
          </mxGeometry>
        </mxCell>
        <mxCell id="xWFv-LNBJBYuZ6HYcTC7-2" value="Secrets Manager" style="sketch=0;points=[[0,0,0],[0.25,0,0],[0.5,0,0],[0.75,0,0],[1,0,0],[0,1,0],[0.25,1,0],[0.5,1,0],[0.75,1,0],[1,1,0],[0,0.25,0],[0,0.5,0],[0,0.75,0],[1,0.25,0],[1,0.5,0],[1,0.75,0]];outlineConnect=0;fontColor=#232F3E;fillColor=#DD344C;strokeColor=#ffffff;dashed=0;verticalLabelPosition=bottom;verticalAlign=top;align=center;html=1;fontSize=12;fontStyle=0;aspect=fixed;shape=mxgraph.aws4.resourceIcon;resIcon=mxgraph.aws4.secrets_manager;" vertex="1" parent="1">
          <mxGeometry x="-40" y="-520" width="78" height="78" as="geometry" />
        </mxCell>
        <mxCell id="xWFv-LNBJBYuZ6HYcTC7-3" style="edgeStyle=orthogonalEdgeStyle;rounded=0;orthogonalLoop=1;jettySize=auto;html=1;entryX=0.5;entryY=0;entryDx=0;entryDy=0;entryPerimeter=0;" edge="1" parent="1" source="xWFv-LNBJBYuZ6HYcTC7-2" target="riZJicVT2WOzwHczcI7a-6">
          <mxGeometry relative="1" as="geometry">
            <Array as="points">
              <mxPoint x="-1" y="-360" />
              <mxPoint x="-113" y="-360" />
            </Array>
          </mxGeometry>
        </mxCell>
        <mxCell id="xWFv-LNBJBYuZ6HYcTC7-4" value="" style="rounded=0;whiteSpace=wrap;html=1;fillColor=none;" vertex="1" parent="1">
          <mxGeometry x="-420" y="-600" width="560" height="490" as="geometry" />
        </mxCell>
        <mxCell id="xWFv-LNBJBYuZ6HYcTC7-5" style="edgeStyle=orthogonalEdgeStyle;rounded=0;orthogonalLoop=1;jettySize=auto;html=1;entryX=-0.011;entryY=0.465;entryDx=0;entryDy=0;entryPerimeter=0;dashed=1;" edge="1" parent="1" source="ZPLuULGBKe7dpCCeT6HW-2" target="ZPLuULGBKe7dpCCeT6HW-7">
          <mxGeometry relative="1" as="geometry" />
        </mxCell>
        <mxCell id="xWFv-LNBJBYuZ6HYcTC7-6" style="edgeStyle=orthogonalEdgeStyle;rounded=0;orthogonalLoop=1;jettySize=auto;html=1;entryX=1;entryY=0.5;entryDx=0;entryDy=0;entryPerimeter=0;dashed=1;" edge="1" parent="1" source="ZPLuULGBKe7dpCCeT6HW-7" target="ZPLuULGBKe7dpCCeT6HW-2">
          <mxGeometry relative="1" as="geometry" />
        </mxCell>
      </root>
    </mxGraphModel>
  </diagram>
</mxfile>
